<?xml version="1.0" encoding="utf-8" standalone="no"?>
<!DOCTYPE svg PUBLIC "-//W3C//DTD SVG 1.1//EN"
  "http://www.w3.org/Graphics/SVG/1.1/DTD/svg11.dtd">
<svg xmlns:xlink="http://www.w3.org/1999/xlink" width="460.8pt" height="345.6pt" viewBox="0 0 460.8 345.6" xmlns="http://www.w3.org/2000/svg" version="1.1">
 <metadata>
  <rdf:RDF xmlns:dc="http://purl.org/dc/elements/1.1/" xmlns:cc="http://creativecommons.org/ns#" xmlns:rdf="http://www.w3.org/1999/02/22-rdf-syntax-ns#">
   <cc:Work>
    <dc:type rdf:resource="http://purl.org/dc/dcmitype/StillImage"/>
    <dc:date>2023-01-12T14:22:38.985164</dc:date>
    <dc:format>image/svg+xml</dc:format>
    <dc:creator>
     <cc:Agent>
      <dc:title>Matplotlib v3.6.2, https://matplotlib.org/</dc:title>
     </cc:Agent>
    </dc:creator>
   </cc:Work>
  </rdf:RDF>
 </metadata>
 <defs>
  <style type="text/css">*{stroke-linejoin: round; stroke-linecap: butt}</style>
 </defs>
 <g id="figure_1">
  <g id="patch_1">
   <path d="M 0 345.6 
L 460.8 345.6 
L 460.8 0 
L 0 0 
z
" style="fill: #ffffff"/>
  </g>
  <g id="axes_1">
   <g id="patch_2">
    <path d="M 57.6 307.584 
L 414.72 307.584 
L 414.72 41.472 
L 57.6 41.472 
z
" style="fill: #ffffff"/>
   </g>
   <g id="matplotlib.axis_1">
    <g id="xtick_1">
     <g id="line2d_1">
      <defs>
       <path id="m1c7b95b47d" d="M 0 0 
L 0 3.5 
" style="stroke: #000000; stroke-width: 0.8"/>
      </defs>
      <g>
       <use xlink:href="#m1c7b95b47d" x="73.832727" y="307.584" style="stroke: #000000; stroke-width: 0.8"/>
      </g>
     </g>
     <g id="text_1">
      <!-- 0 -->
      <g transform="translate(70.651477 322.182437) scale(0.1 -0.1)">
       <defs>
        <path id="DejaVuSans-30" d="M 2034 4250 
Q 1547 4250 1301 3770 
Q 1056 3291 1056 2328 
Q 1056 1369 1301 889 
Q 1547 409 2034 409 
Q 2525 409 2770 889 
Q 3016 1369 3016 2328 
Q 3016 3291 2770 3770 
Q 2525 4250 2034 4250 
z
M 2034 4750 
Q 2819 4750 3233 4129 
Q 3647 3509 3647 2328 
Q 3647 1150 3233 529 
Q 2819 -91 2034 -91 
Q 1250 -91 836 529 
Q 422 1150 422 2328 
Q 422 3509 836 4129 
Q 1250 4750 2034 4750 
z
" transform="scale(0.015625)"/>
       </defs>
       <use xlink:href="#DejaVuSans-30"/>
      </g>
     </g>
    </g>
    <g id="xtick_2">
     <g id="line2d_2">
      <g>
       <use xlink:href="#m1c7b95b47d" x="125.581059" y="307.584" style="stroke: #000000; stroke-width: 0.8"/>
      </g>
     </g>
     <g id="text_2">
      <!-- 5 -->
      <g transform="translate(122.399809 322.182437) scale(0.1 -0.1)">
       <defs>
        <path id="DejaVuSans-35" d="M 691 4666 
L 3169 4666 
L 3169 4134 
L 1269 4134 
L 1269 2991 
Q 1406 3038 1543 3061 
Q 1681 3084 1819 3084 
Q 2600 3084 3056 2656 
Q 3513 2228 3513 1497 
Q 3513 744 3044 326 
Q 2575 -91 1722 -91 
Q 1428 -91 1123 -41 
Q 819 9 494 109 
L 494 744 
Q 775 591 1075 516 
Q 1375 441 1709 441 
Q 2250 441 2565 725 
Q 2881 1009 2881 1497 
Q 2881 1984 2565 2268 
Q 2250 2553 1709 2553 
Q 1456 2553 1204 2497 
Q 953 2441 691 2322 
L 691 4666 
z
" transform="scale(0.015625)"/>
       </defs>
       <use xlink:href="#DejaVuSans-35"/>
      </g>
     </g>
    </g>
    <g id="xtick_3">
     <g id="line2d_3">
      <g>
       <use xlink:href="#m1c7b95b47d" x="177.329391" y="307.584" style="stroke: #000000; stroke-width: 0.8"/>
      </g>
     </g>
     <g id="text_3">
      <!-- 10 -->
      <g transform="translate(170.966891 322.182437) scale(0.1 -0.1)">
       <defs>
        <path id="DejaVuSans-31" d="M 794 531 
L 1825 531 
L 1825 4091 
L 703 3866 
L 703 4441 
L 1819 4666 
L 2450 4666 
L 2450 531 
L 3481 531 
L 3481 0 
L 794 0 
L 794 531 
z
" transform="scale(0.015625)"/>
       </defs>
       <use xlink:href="#DejaVuSans-31"/>
       <use xlink:href="#DejaVuSans-30" x="63.623047"/>
      </g>
     </g>
    </g>
    <g id="xtick_4">
     <g id="line2d_4">
      <g>
       <use xlink:href="#m1c7b95b47d" x="229.077723" y="307.584" style="stroke: #000000; stroke-width: 0.8"/>
      </g>
     </g>
     <g id="text_4">
      <!-- 15 -->
      <g transform="translate(222.715223 322.182437) scale(0.1 -0.1)">
       <use xlink:href="#DejaVuSans-31"/>
       <use xlink:href="#DejaVuSans-35" x="63.623047"/>
      </g>
     </g>
    </g>
    <g id="xtick_5">
     <g id="line2d_5">
      <g>
       <use xlink:href="#m1c7b95b47d" x="280.826055" y="307.584" style="stroke: #000000; stroke-width: 0.8"/>
      </g>
     </g>
     <g id="text_5">
      <!-- 20 -->
      <g transform="translate(274.463555 322.182437) scale(0.1 -0.1)">
       <defs>
        <path id="DejaVuSans-32" d="M 1228 531 
L 3431 531 
L 3431 0 
L 469 0 
L 469 531 
Q 828 903 1448 1529 
Q 2069 2156 2228 2338 
Q 2531 2678 2651 2914 
Q 2772 3150 2772 3378 
Q 2772 3750 2511 3984 
Q 2250 4219 1831 4219 
Q 1534 4219 1204 4116 
Q 875 4013 500 3803 
L 500 4441 
Q 881 4594 1212 4672 
Q 1544 4750 1819 4750 
Q 2544 4750 2975 4387 
Q 3406 4025 3406 3419 
Q 3406 3131 3298 2873 
Q 3191 2616 2906 2266 
Q 2828 2175 2409 1742 
Q 1991 1309 1228 531 
z
" transform="scale(0.015625)"/>
       </defs>
       <use xlink:href="#DejaVuSans-32"/>
       <use xlink:href="#DejaVuSans-30" x="63.623047"/>
      </g>
     </g>
    </g>
    <g id="xtick_6">
     <g id="line2d_6">
      <g>
       <use xlink:href="#m1c7b95b47d" x="332.574387" y="307.584" style="stroke: #000000; stroke-width: 0.8"/>
      </g>
     </g>
     <g id="text_6">
      <!-- 25 -->
      <g transform="translate(326.211887 322.182437) scale(0.1 -0.1)">
       <use xlink:href="#DejaVuSans-32"/>
       <use xlink:href="#DejaVuSans-35" x="63.623047"/>
      </g>
     </g>
    </g>
    <g id="xtick_7">
     <g id="line2d_7">
      <g>
       <use xlink:href="#m1c7b95b47d" x="384.322719" y="307.584" style="stroke: #000000; stroke-width: 0.8"/>
      </g>
     </g>
     <g id="text_7">
      <!-- 30 -->
      <g transform="translate(377.960219 322.182437) scale(0.1 -0.1)">
       <defs>
        <path id="DejaVuSans-33" d="M 2597 2516 
Q 3050 2419 3304 2112 
Q 3559 1806 3559 1356 
Q 3559 666 3084 287 
Q 2609 -91 1734 -91 
Q 1441 -91 1130 -33 
Q 819 25 488 141 
L 488 750 
Q 750 597 1062 519 
Q 1375 441 1716 441 
Q 2309 441 2620 675 
Q 2931 909 2931 1356 
Q 2931 1769 2642 2001 
Q 2353 2234 1838 2234 
L 1294 2234 
L 1294 2753 
L 1863 2753 
Q 2328 2753 2575 2939 
Q 2822 3125 2822 3475 
Q 2822 3834 2567 4026 
Q 2313 4219 1838 4219 
Q 1578 4219 1281 4162 
Q 984 4106 628 3988 
L 628 4550 
Q 988 4650 1302 4700 
Q 1616 4750 1894 4750 
Q 2613 4750 3031 4423 
Q 3450 4097 3450 3541 
Q 3450 3153 3228 2886 
Q 3006 2619 2597 2516 
z
" transform="scale(0.015625)"/>
       </defs>
       <use xlink:href="#DejaVuSans-33"/>
       <use xlink:href="#DejaVuSans-30" x="63.623047"/>
      </g>
     </g>
    </g>
    <g id="text_8">
     <!-- Y Values -->
     <g transform="translate(215.181094 335.860562) scale(0.1 -0.1)">
      <defs>
       <path id="DejaVuSans-59" d="M -13 4666 
L 666 4666 
L 1959 2747 
L 3244 4666 
L 3922 4666 
L 2272 2222 
L 2272 0 
L 1638 0 
L 1638 2222 
L -13 4666 
z
" transform="scale(0.015625)"/>
       <path id="DejaVuSans-20" transform="scale(0.015625)"/>
       <path id="DejaVuSans-56" d="M 1831 0 
L 50 4666 
L 709 4666 
L 2188 738 
L 3669 4666 
L 4325 4666 
L 2547 0 
L 1831 0 
z
" transform="scale(0.015625)"/>
       <path id="DejaVuSans-61" d="M 2194 1759 
Q 1497 1759 1228 1600 
Q 959 1441 959 1056 
Q 959 750 1161 570 
Q 1363 391 1709 391 
Q 2188 391 2477 730 
Q 2766 1069 2766 1631 
L 2766 1759 
L 2194 1759 
z
M 3341 1997 
L 3341 0 
L 2766 0 
L 2766 531 
Q 2569 213 2275 61 
Q 1981 -91 1556 -91 
Q 1019 -91 701 211 
Q 384 513 384 1019 
Q 384 1609 779 1909 
Q 1175 2209 1959 2209 
L 2766 2209 
L 2766 2266 
Q 2766 2663 2505 2880 
Q 2244 3097 1772 3097 
Q 1472 3097 1187 3025 
Q 903 2953 641 2809 
L 641 3341 
Q 956 3463 1253 3523 
Q 1550 3584 1831 3584 
Q 2591 3584 2966 3190 
Q 3341 2797 3341 1997 
z
" transform="scale(0.015625)"/>
       <path id="DejaVuSans-6c" d="M 603 4863 
L 1178 4863 
L 1178 0 
L 603 0 
L 603 4863 
z
" transform="scale(0.015625)"/>
       <path id="DejaVuSans-75" d="M 544 1381 
L 544 3500 
L 1119 3500 
L 1119 1403 
Q 1119 906 1312 657 
Q 1506 409 1894 409 
Q 2359 409 2629 706 
Q 2900 1003 2900 1516 
L 2900 3500 
L 3475 3500 
L 3475 0 
L 2900 0 
L 2900 538 
Q 2691 219 2414 64 
Q 2138 -91 1772 -91 
Q 1169 -91 856 284 
Q 544 659 544 1381 
z
M 1991 3584 
L 1991 3584 
z
" transform="scale(0.015625)"/>
       <path id="DejaVuSans-65" d="M 3597 1894 
L 3597 1613 
L 953 1613 
Q 991 1019 1311 708 
Q 1631 397 2203 397 
Q 2534 397 2845 478 
Q 3156 559 3463 722 
L 3463 178 
Q 3153 47 2828 -22 
Q 2503 -91 2169 -91 
Q 1331 -91 842 396 
Q 353 884 353 1716 
Q 353 2575 817 3079 
Q 1281 3584 2069 3584 
Q 2775 3584 3186 3129 
Q 3597 2675 3597 1894 
z
M 3022 2063 
Q 3016 2534 2758 2815 
Q 2500 3097 2075 3097 
Q 1594 3097 1305 2825 
Q 1016 2553 972 2059 
L 3022 2063 
z
" transform="scale(0.015625)"/>
       <path id="DejaVuSans-73" d="M 2834 3397 
L 2834 2853 
Q 2591 2978 2328 3040 
Q 2066 3103 1784 3103 
Q 1356 3103 1142 2972 
Q 928 2841 928 2578 
Q 928 2378 1081 2264 
Q 1234 2150 1697 2047 
L 1894 2003 
Q 2506 1872 2764 1633 
Q 3022 1394 3022 966 
Q 3022 478 2636 193 
Q 2250 -91 1575 -91 
Q 1294 -91 989 -36 
Q 684 19 347 128 
L 347 722 
Q 666 556 975 473 
Q 1284 391 1588 391 
Q 1994 391 2212 530 
Q 2431 669 2431 922 
Q 2431 1156 2273 1281 
Q 2116 1406 1581 1522 
L 1381 1569 
Q 847 1681 609 1914 
Q 372 2147 372 2553 
Q 372 3047 722 3315 
Q 1072 3584 1716 3584 
Q 2034 3584 2315 3537 
Q 2597 3491 2834 3397 
z
" transform="scale(0.015625)"/>
      </defs>
      <use xlink:href="#DejaVuSans-59"/>
      <use xlink:href="#DejaVuSans-20" x="61.083984"/>
      <use xlink:href="#DejaVuSans-56" x="92.871094"/>
      <use xlink:href="#DejaVuSans-61" x="153.529297"/>
      <use xlink:href="#DejaVuSans-6c" x="214.808594"/>
      <use xlink:href="#DejaVuSans-75" x="242.591797"/>
      <use xlink:href="#DejaVuSans-65" x="305.970703"/>
      <use xlink:href="#DejaVuSans-73" x="367.494141"/>
     </g>
    </g>
   </g>
   <g id="matplotlib.axis_2">
    <g id="ytick_1">
     <g id="line2d_8">
      <defs>
       <path id="md7cf4b5703" d="M 0 0 
L -3.5 0 
" style="stroke: #000000; stroke-width: 0.8"/>
      </defs>
      <g>
       <use xlink:href="#md7cf4b5703" x="57.6" y="295.674113" style="stroke: #000000; stroke-width: 0.8"/>
      </g>
     </g>
     <g id="text_9">
      <!-- −3 -->
      <g transform="translate(35.857813 299.473332) scale(0.1 -0.1)">
       <defs>
        <path id="DejaVuSans-2212" d="M 678 2272 
L 4684 2272 
L 4684 1741 
L 678 1741 
L 678 2272 
z
" transform="scale(0.015625)"/>
       </defs>
       <use xlink:href="#DejaVuSans-2212"/>
       <use xlink:href="#DejaVuSans-33" x="83.789062"/>
      </g>
     </g>
    </g>
    <g id="ytick_2">
     <g id="line2d_9">
      <g>
       <use xlink:href="#md7cf4b5703" x="57.6" y="255.353986" style="stroke: #000000; stroke-width: 0.8"/>
      </g>
     </g>
     <g id="text_10">
      <!-- −2 -->
      <g transform="translate(35.857813 259.153204) scale(0.1 -0.1)">
       <use xlink:href="#DejaVuSans-2212"/>
       <use xlink:href="#DejaVuSans-32" x="83.789062"/>
      </g>
     </g>
    </g>
    <g id="ytick_3">
     <g id="line2d_10">
      <g>
       <use xlink:href="#md7cf4b5703" x="57.6" y="215.033858" style="stroke: #000000; stroke-width: 0.8"/>
      </g>
     </g>
     <g id="text_11">
      <!-- −1 -->
      <g transform="translate(35.857813 218.833077) scale(0.1 -0.1)">
       <use xlink:href="#DejaVuSans-2212"/>
       <use xlink:href="#DejaVuSans-31" x="83.789062"/>
      </g>
     </g>
    </g>
    <g id="ytick_4">
     <g id="line2d_11">
      <g>
       <use xlink:href="#md7cf4b5703" x="57.6" y="174.713731" style="stroke: #000000; stroke-width: 0.8"/>
      </g>
     </g>
     <g id="text_12">
      <!-- 0 -->
      <g transform="translate(44.2375 178.51295) scale(0.1 -0.1)">
       <use xlink:href="#DejaVuSans-30"/>
      </g>
     </g>
    </g>
    <g id="ytick_5">
     <g id="line2d_12">
      <g>
       <use xlink:href="#md7cf4b5703" x="57.6" y="134.393604" style="stroke: #000000; stroke-width: 0.8"/>
      </g>
     </g>
     <g id="text_13">
      <!-- 1 -->
      <g transform="translate(44.2375 138.192822) scale(0.1 -0.1)">
       <use xlink:href="#DejaVuSans-31"/>
      </g>
     </g>
    </g>
    <g id="ytick_6">
     <g id="line2d_13">
      <g>
       <use xlink:href="#md7cf4b5703" x="57.6" y="94.073476" style="stroke: #000000; stroke-width: 0.8"/>
      </g>
     </g>
     <g id="text_14">
      <!-- 2 -->
      <g transform="translate(44.2375 97.872695) scale(0.1 -0.1)">
       <use xlink:href="#DejaVuSans-32"/>
      </g>
     </g>
    </g>
    <g id="ytick_7">
     <g id="line2d_14">
      <g>
       <use xlink:href="#md7cf4b5703" x="57.6" y="53.753349" style="stroke: #000000; stroke-width: 0.8"/>
      </g>
     </g>
     <g id="text_15">
      <!-- 3 -->
      <g transform="translate(44.2375 57.552568) scale(0.1 -0.1)">
       <use xlink:href="#DejaVuSans-33"/>
      </g>
     </g>
    </g>
    <g id="text_16">
     <!-- F Values -->
     <g transform="translate(29.778125 195.328781) rotate(-90) scale(0.1 -0.1)">
      <defs>
       <path id="DejaVuSans-46" d="M 628 4666 
L 3309 4666 
L 3309 4134 
L 1259 4134 
L 1259 2759 
L 3109 2759 
L 3109 2228 
L 1259 2228 
L 1259 0 
L 628 0 
L 628 4666 
z
" transform="scale(0.015625)"/>
      </defs>
      <use xlink:href="#DejaVuSans-46"/>
      <use xlink:href="#DejaVuSans-20" x="57.519531"/>
      <use xlink:href="#DejaVuSans-56" x="89.306641"/>
      <use xlink:href="#DejaVuSans-61" x="149.964844"/>
      <use xlink:href="#DejaVuSans-6c" x="211.244141"/>
      <use xlink:href="#DejaVuSans-75" x="239.027344"/>
      <use xlink:href="#DejaVuSans-65" x="302.40625"/>
      <use xlink:href="#DejaVuSans-73" x="363.929688"/>
     </g>
    </g>
   </g>
   <g id="line2d_15">
    <path d="M 73.832727 279.45203 
L 74.482686 265.619199 
L 75.457625 238.449307 
L 76.757543 194.060362 
L 79.0324 113.552412 
L 80.007338 85.736602 
L 80.657297 71.357849 
L 81.307256 60.981903 
L 81.957215 55.011331 
L 82.282195 53.75742 
L 82.607174 53.67778 
L 82.932154 54.773186 
L 83.257133 57.032988 
L 83.907093 64.946781 
L 84.557052 77.112118 
L 85.53199 102.25857 
L 86.831908 145.100209 
L 89.756724 246.96506 
L 90.731663 272.067832 
L 91.381622 284.197803 
L 92.031581 292.072806 
L 92.35656 294.312397 
L 92.68154 295.387308 
L 93.006519 295.287088 
L 93.331499 294.012712 
L 93.656478 291.57657 
L 94.306437 283.324803 
L 94.956396 270.85194 
L 95.931335 245.32695 
L 97.231253 202.183647 
L 99.831089 110.429966 
L 100.806028 83.299983 
L 101.455987 69.500646 
L 102.105946 59.776172 
L 102.430925 56.566533 
L 102.755905 54.503853 
L 103.080885 53.608186 
L 103.405864 53.888243 
L 103.730844 55.341299 
L 104.055823 57.953227 
L 104.705782 66.541092 
L 105.355741 79.318645 
L 106.33068 105.216368 
L 107.630598 148.651526 
L 110.230434 240.16594 
L 111.205373 266.943718 
L 111.855332 280.448607 
L 112.505291 289.84399 
L 112.83027 292.880044 
L 113.15525 294.765345 
L 113.480229 295.481563 
L 113.805209 295.021734 
L 114.130188 293.390328 
L 114.455168 290.603208 
L 115.105127 281.681198 
L 115.755086 268.60186 
L 116.730025 242.337293 
L 118.029943 198.620157 
L 120.629779 107.365818 
L 121.604717 80.946336 
L 122.254676 67.738966 
L 122.904636 58.67481 
L 123.229615 55.813031 
L 123.554595 54.105537 
L 123.879574 53.568931 
L 124.204554 54.208429 
L 124.529533 56.017813 
L 124.854513 58.979492 
L 125.504472 68.233618 
L 126.154431 81.611766 
L 127.129369 108.237205 
L 128.429287 152.226379 
L 131.029124 243.19989 
L 132.004062 269.25507 
L 132.654021 282.161918 
L 133.30398 290.892787 
L 133.62896 293.579639 
L 133.953939 295.108937 
L 134.278919 295.46581 
L 134.603898 294.646789 
L 134.928878 292.659837 
L 135.253857 289.524274 
L 135.903817 279.940135 
L 136.553776 266.266218 
L 137.528714 239.285962 
L 138.828632 195.034755 
L 141.428468 104.362756 
L 142.403407 78.677804 
L 143.053366 66.074413 
L 143.703325 57.678817 
L 144.028305 55.167502 
L 144.353284 53.816748 
L 144.678264 53.63969 
L 145.003243 54.638048 
L 145.328223 56.802115 
L 145.978182 64.532081 
L 146.628141 76.529682 
L 147.2781 92.329433 
L 148.253038 121.782569 
L 149.877936 179.609155 
L 151.502834 236.22452 
L 152.477772 263.885374 
L 153.127731 278.13248 
L 153.77769 288.359943 
L 154.427649 294.170955 
L 154.752629 295.342858 
L 155.077609 295.340062 
L 155.402588 294.162594 
L 155.727568 291.821904 
L 156.377527 283.752978 
L 157.027486 271.446344 
L 158.002424 246.12568 
L 159.302342 203.144565 
L 162.227158 101.42351 
L 163.202097 76.496449 
L 163.852056 64.5085 
L 164.502015 56.789101 
L 164.826994 54.630533 
L 165.151974 53.637748 
L 165.476953 53.820398 
L 165.801933 55.176708 
L 166.126912 57.69349 
L 166.776871 66.099539 
L 167.42683 78.712408 
L 168.401769 104.408959 
L 169.701687 147.687252 
L 172.301523 239.333855 
L 173.276462 266.303172 
L 173.926421 279.967939 
L 174.57638 289.541849 
L 174.90136 292.672017 
L 175.226339 294.653454 
L 175.551319 295.466897 
L 175.876298 295.104434 
L 176.201278 293.56959 
L 176.526257 290.87729 
L 177.176216 282.136028 
L 177.826175 269.219792 
L 178.801114 243.153196 
L 180.101032 199.587568 
L 182.700868 108.189776 
L 183.675807 81.575466 
L 184.325766 68.206563 
L 184.975725 58.962731 
L 185.300704 56.00647 
L 185.625684 54.202613 
L 185.950663 53.568699 
L 186.275643 54.110892 
L 186.600622 55.82392 
L 186.925602 58.691127 
L 187.575561 67.765614 
L 188.22552 80.98228 
L 189.200459 107.412993 
L 190.500377 151.25605 
L 193.100213 242.384248 
L 194.075152 268.637499 
L 194.725111 281.707499 
L 195.37507 290.61915 
L 195.700049 293.400832 
L 196.025029 295.026698 
L 196.350008 295.48094 
L 196.674988 294.75914 
L 196.999967 292.868317 
L 197.324947 289.826855 
L 197.974906 280.421207 
L 198.624865 266.907117 
L 199.599803 240.118297 
L 200.899722 196.007779 
L 203.499558 105.169897 
L 204.474496 79.283675 
L 205.124455 66.515552 
L 205.774414 57.938107 
L 206.099394 55.331636 
L 206.424373 53.884131 
L 206.749353 53.609665 
L 207.074333 54.510907 
L 207.399312 56.579096 
L 207.724292 59.79412 
L 208.374251 69.528791 
L 209.02421 83.337232 
L 209.999148 110.478068 
L 211.299066 154.846015 
L 213.573923 235.372633 
L 214.548862 263.216473 
L 215.198821 277.619089 
L 215.84878 288.021979 
L 216.498739 294.021531 
L 216.823718 295.290347 
L 217.148698 295.384975 
L 217.473677 294.304494 
L 217.798657 292.059411 
L 218.448616 284.173866 
L 219.098575 272.034282 
L 220.073514 246.919633 
L 221.373432 204.103574 
L 224.298247 102.213101 
L 225.273186 77.07851 
L 225.923145 64.922779 
L 226.573104 57.019524 
L 226.898084 54.765213 
L 227.223063 53.675376 
L 227.548043 53.760607 
L 227.873022 55.02008 
L 228.198002 57.441547 
L 228.847961 65.66522 
L 229.49792 78.112564 
L 230.472858 103.606229 
L 231.772776 146.724768 
L 234.697592 248.297168 
L 235.672531 273.047328 
L 236.32249 284.892681 
L 236.972449 292.456107 
L 237.297428 294.533549 
L 237.622408 295.444161 
L 237.947387 295.179089 
L 238.272367 293.740911 
L 238.597346 291.143609 
L 239.247305 282.583679 
L 239.897265 269.831407 
L 240.872203 243.964521 
L 242.172121 200.553308 
L 244.771957 109.018159 
L 245.746896 82.210798 
L 246.396855 68.681253 
L 247.046814 59.258363 
L 247.371794 56.207817 
L 247.696773 54.307717 
L 248.021753 53.576538 
L 248.346732 54.02139 
L 248.671712 55.637947 
L 248.996691 58.410491 
L 249.64665 67.304732 
L 250.296609 80.359034 
L 251.271548 106.593258 
L 252.571466 150.287274 
L 255.171302 241.564079 
L 256.146241 268.01365 
L 256.7962 281.245929 
L 257.446159 290.337767 
L 257.771138 293.214094 
L 258.096118 294.936421 
L 258.421097 295.488 
L 258.746077 294.863469 
L 259.071057 293.068901 
L 259.396036 290.121744 
L 260.045995 280.895215 
L 260.695954 267.541852 
L 261.670893 240.946256 
L 262.970811 196.979371 
L 265.570647 105.981666 
L 266.545586 79.895901 
L 267.195545 66.963896 
L 267.845504 58.205176 
L 268.170483 55.503723 
L 268.495463 53.959562 
L 268.820442 53.587707 
L 269.145422 54.391775 
L 269.470401 56.363946 
L 269.795381 59.485045 
L 270.44534 69.041765 
L 271.095299 82.691152 
L 272.070238 109.642074 
L 273.370156 153.871828 
L 275.969992 244.569742 
L 276.94493 270.28577 
L 277.594889 282.914559 
L 278.244848 291.338169 
L 278.569828 293.864135 
L 278.894808 295.229779 
L 279.219787 295.421825 
L 279.544767 294.438403 
L 279.869746 292.289077 
L 280.519705 284.587438 
L 281.169664 272.615714 
L 281.819623 256.838386 
L 282.794562 227.410549 
L 284.419459 169.599088 
L 286.044357 112.962643 
L 287.019296 85.273517 
L 287.669255 71.002424 
L 288.319214 60.747928 
L 288.969173 54.907884 
L 289.294152 53.721066 
L 289.619132 53.708874 
L 289.944111 54.871425 
L 290.269091 57.197417 
L 290.91905 65.238165 
L 291.569009 77.519152 
L 292.543948 102.808231 
L 293.843866 145.764139 
L 296.768681 247.511701 
L 297.74362 272.470798 
L 298.393579 284.484611 
L 299.043538 292.23233 
L 299.368518 294.405637 
L 299.693497 295.413358 
L 300.018477 295.245695 
L 300.343456 293.904277 
L 300.668436 291.402148 
L 301.318395 283.024121 
L 301.968354 270.436663 
L 302.943292 244.771213 
L 304.24321 201.517311 
L 306.843047 109.850913 
L 307.817985 82.852288 
L 308.467944 69.163005 
L 309.117903 59.561685 
L 309.442883 56.417057 
L 309.767862 54.420841 
L 310.092842 53.592446 
L 310.417821 53.939927 
L 310.742801 55.459905 
L 311.067781 58.137602 
L 311.71774 66.851004 
L 312.367699 79.742071 
L 313.342637 105.778055 
L 314.642555 149.320116 
L 317.242391 240.739437 
L 318.21733 267.383563 
L 318.867289 280.777239 
L 319.517248 290.048658 
L 319.842228 293.019438 
L 320.167207 294.838109 
L 320.492187 295.48699 
L 320.817166 294.95977 
L 321.142146 293.261577 
L 321.467125 290.408921 
L 322.117084 281.362125 
L 322.767043 268.170382 
L 323.741982 241.769783 
L 325.0419 197.949465 
L 327.641736 106.798008 
L 328.616675 80.51444 
L 329.266634 67.419417 
L 329.916593 58.480006 
L 330.241572 55.683751 
L 330.566552 54.043037 
L 330.891532 53.573819 
L 331.216511 54.280657 
L 331.541491 56.15668 
L 331.86647 59.183646 
L 332.516429 68.561778 
L 333.166388 82.051199 
L 334.141327 108.810408 
L 335.441245 152.89902 
L 338.041081 243.761885 
L 339.01602 269.678919 
L 339.665979 282.472311 
L 340.315938 291.077681 
L 340.640917 293.698776 
L 340.965897 295.161158 
L 341.290876 295.450608 
L 341.615856 294.564312 
L 341.940835 292.510887 
L 342.265815 289.310298 
L 342.915774 279.602963 
L 343.565733 265.818931 
L 344.540672 238.707196 
L 345.84059 194.360317 
L 348.115446 113.815159 
L 349.090385 85.94333 
L 349.740344 71.516876 
L 350.390303 61.087058 
L 351.040262 55.058535 
L 351.365242 53.774817 
L 351.690221 53.665201 
L 352.015201 54.730754 
L 352.34018 56.961115 
L 352.990139 64.818401 
L 353.640098 76.932213 
L 354.615037 102.015017 
L 355.914955 144.805429 
L 358.839771 246.721364 
L 359.814709 271.887734 
L 360.464668 284.069206 
L 361.114627 292.0007 
L 361.439607 294.269727 
L 361.764586 295.37449 
L 362.089566 295.304246 
L 362.414545 294.059679 
L 362.739525 291.65289 
L 363.389484 283.457324 
L 364.039443 271.03552 
L 365.014382 245.573219 
L 366.3143 202.479513 
L 369.239115 100.879724 
L 370.214054 76.097312 
L 370.864013 64.22599 
L 371.513972 56.634178 
L 371.838952 54.541979 
L 372.163931 53.616423 
L 372.488911 53.86651 
L 372.81389 55.289808 
L 373.13887 57.872478 
L 373.788829 66.404461 
L 374.438788 79.131432 
L 375.413726 104.967439 
L 376.713645 148.354639 
L 379.313481 239.910378 
L 380.288419 266.747281 
L 380.938378 280.30146 
L 381.588337 289.751842 
L 381.913317 292.816876 
L 382.238296 294.731772 
L 382.563276 295.47791 
L 382.888256 295.048036 
L 383.213235 293.446331 
L 383.538215 290.688366 
L 384.188174 281.821908 
L 384.838133 268.792663 
L 385.813071 242.588825 
L 387.112989 198.917996 
L 389.712826 107.618869 
L 390.687764 81.139252 
L 391.337723 67.882085 
L 391.987682 58.762578 
L 392.312662 55.871708 
L 392.637641 54.134551 
L 392.962621 53.568 
L 393.2876 54.177562 
L 393.61258 55.957311 
L 393.937559 58.889942 
L 394.587518 68.08886 
L 395.237477 81.417416 
L 396.212416 107.983128 
L 397.512334 151.927654 
L 398.487273 187.565449 
L 398.487273 187.565449 
" clip-path="url(#p0f58a43036)" style="fill: none; stroke: #1f77b4; stroke-width: 1.5; stroke-linecap: square"/>
   </g>
   <g id="patch_3">
    <path d="M 57.6 307.584 
L 57.6 41.472 
" style="fill: none; stroke: #000000; stroke-width: 0.8; stroke-linejoin: miter; stroke-linecap: square"/>
   </g>
   <g id="patch_4">
    <path d="M 414.72 307.584 
L 414.72 41.472 
" style="fill: none; stroke: #000000; stroke-width: 0.8; stroke-linejoin: miter; stroke-linecap: square"/>
   </g>
   <g id="patch_5">
    <path d="M 57.6 307.584 
L 414.72 307.584 
" style="fill: none; stroke: #000000; stroke-width: 0.8; stroke-linejoin: miter; stroke-linecap: square"/>
   </g>
   <g id="patch_6">
    <path d="M 57.6 41.472 
L 414.72 41.472 
" style="fill: none; stroke: #000000; stroke-width: 0.8; stroke-linejoin: miter; stroke-linecap: square"/>
   </g>
   <g id="text_17">
    <!-- Vertical Line Plot -->
    <g transform="translate(186.074062 35.472) scale(0.12 -0.12)">
     <defs>
      <path id="DejaVuSans-72" d="M 2631 2963 
Q 2534 3019 2420 3045 
Q 2306 3072 2169 3072 
Q 1681 3072 1420 2755 
Q 1159 2438 1159 1844 
L 1159 0 
L 581 0 
L 581 3500 
L 1159 3500 
L 1159 2956 
Q 1341 3275 1631 3429 
Q 1922 3584 2338 3584 
Q 2397 3584 2469 3576 
Q 2541 3569 2628 3553 
L 2631 2963 
z
" transform="scale(0.015625)"/>
      <path id="DejaVuSans-74" d="M 1172 4494 
L 1172 3500 
L 2356 3500 
L 2356 3053 
L 1172 3053 
L 1172 1153 
Q 1172 725 1289 603 
Q 1406 481 1766 481 
L 2356 481 
L 2356 0 
L 1766 0 
Q 1100 0 847 248 
Q 594 497 594 1153 
L 594 3053 
L 172 3053 
L 172 3500 
L 594 3500 
L 594 4494 
L 1172 4494 
z
" transform="scale(0.015625)"/>
      <path id="DejaVuSans-69" d="M 603 3500 
L 1178 3500 
L 1178 0 
L 603 0 
L 603 3500 
z
M 603 4863 
L 1178 4863 
L 1178 4134 
L 603 4134 
L 603 4863 
z
" transform="scale(0.015625)"/>
      <path id="DejaVuSans-63" d="M 3122 3366 
L 3122 2828 
Q 2878 2963 2633 3030 
Q 2388 3097 2138 3097 
Q 1578 3097 1268 2742 
Q 959 2388 959 1747 
Q 959 1106 1268 751 
Q 1578 397 2138 397 
Q 2388 397 2633 464 
Q 2878 531 3122 666 
L 3122 134 
Q 2881 22 2623 -34 
Q 2366 -91 2075 -91 
Q 1284 -91 818 406 
Q 353 903 353 1747 
Q 353 2603 823 3093 
Q 1294 3584 2113 3584 
Q 2378 3584 2631 3529 
Q 2884 3475 3122 3366 
z
" transform="scale(0.015625)"/>
      <path id="DejaVuSans-4c" d="M 628 4666 
L 1259 4666 
L 1259 531 
L 3531 531 
L 3531 0 
L 628 0 
L 628 4666 
z
" transform="scale(0.015625)"/>
      <path id="DejaVuSans-6e" d="M 3513 2113 
L 3513 0 
L 2938 0 
L 2938 2094 
Q 2938 2591 2744 2837 
Q 2550 3084 2163 3084 
Q 1697 3084 1428 2787 
Q 1159 2491 1159 1978 
L 1159 0 
L 581 0 
L 581 3500 
L 1159 3500 
L 1159 2956 
Q 1366 3272 1645 3428 
Q 1925 3584 2291 3584 
Q 2894 3584 3203 3211 
Q 3513 2838 3513 2113 
z
" transform="scale(0.015625)"/>
      <path id="DejaVuSans-50" d="M 1259 4147 
L 1259 2394 
L 2053 2394 
Q 2494 2394 2734 2622 
Q 2975 2850 2975 3272 
Q 2975 3691 2734 3919 
Q 2494 4147 2053 4147 
L 1259 4147 
z
M 628 4666 
L 2053 4666 
Q 2838 4666 3239 4311 
Q 3641 3956 3641 3272 
Q 3641 2581 3239 2228 
Q 2838 1875 2053 1875 
L 1259 1875 
L 1259 0 
L 628 0 
L 628 4666 
z
" transform="scale(0.015625)"/>
      <path id="DejaVuSans-6f" d="M 1959 3097 
Q 1497 3097 1228 2736 
Q 959 2375 959 1747 
Q 959 1119 1226 758 
Q 1494 397 1959 397 
Q 2419 397 2687 759 
Q 2956 1122 2956 1747 
Q 2956 2369 2687 2733 
Q 2419 3097 1959 3097 
z
M 1959 3584 
Q 2709 3584 3137 3096 
Q 3566 2609 3566 1747 
Q 3566 888 3137 398 
Q 2709 -91 1959 -91 
Q 1206 -91 779 398 
Q 353 888 353 1747 
Q 353 2609 779 3096 
Q 1206 3584 1959 3584 
z
" transform="scale(0.015625)"/>
     </defs>
     <use xlink:href="#DejaVuSans-56"/>
     <use xlink:href="#DejaVuSans-65" x="60.658203"/>
     <use xlink:href="#DejaVuSans-72" x="122.181641"/>
     <use xlink:href="#DejaVuSans-74" x="163.294922"/>
     <use xlink:href="#DejaVuSans-69" x="202.503906"/>
     <use xlink:href="#DejaVuSans-63" x="230.287109"/>
     <use xlink:href="#DejaVuSans-61" x="285.267578"/>
     <use xlink:href="#DejaVuSans-6c" x="346.546875"/>
     <use xlink:href="#DejaVuSans-20" x="374.330078"/>
     <use xlink:href="#DejaVuSans-4c" x="406.117188"/>
     <use xlink:href="#DejaVuSans-69" x="461.830078"/>
     <use xlink:href="#DejaVuSans-6e" x="489.613281"/>
     <use xlink:href="#DejaVuSans-65" x="552.992188"/>
     <use xlink:href="#DejaVuSans-20" x="614.515625"/>
     <use xlink:href="#DejaVuSans-50" x="646.302734"/>
     <use xlink:href="#DejaVuSans-6c" x="706.605469"/>
     <use xlink:href="#DejaVuSans-6f" x="734.388672"/>
     <use xlink:href="#DejaVuSans-74" x="795.570312"/>
    </g>
   </g>
  </g>
 </g>
 <defs>
  <clipPath id="p0f58a43036">
   <rect x="57.6" y="41.472" width="357.12" height="266.112"/>
  </clipPath>
 </defs>
</svg>
